<svg width="24" height="24" viewBox="0 0 24 24" fill="none" xmlns="http://www.w3.org/2000/svg">
<path d="M22.2452 0.76709H0.76709V3.8354H22.2452V0.76709Z" fill="#D9D9D9"/>
<path d="M22.2452 4.60246H0.767076C0.563635 4.60246 0.368526 4.52164 0.224671 4.37779C0.0808167 4.23393 0 4.03882 0 3.83538V0.767076C0 0.563635 0.0808167 0.368526 0.224671 0.224671C0.368526 0.0808167 0.563635 0 0.767076 0H22.2452C22.4487 0 22.6438 0.0808167 22.7876 0.224671C22.9315 0.368526 23.0123 0.563635 23.0123 0.767076V3.83538C23.0123 4.03882 22.9315 4.23393 22.7876 4.37779C22.6438 4.52164 22.4487 4.60246 22.2452 4.60246ZM1.53415 3.06831H21.4781V1.53415H1.53415V3.06831Z" fill="#3F3D56"/>
<path d="M21.4781 3.83533H1.53415V16.1085H21.4781V3.83533Z" fill="#91E085"/>
<path d="M21.4782 16.8757H1.53417C1.33072 16.8757 1.13562 16.7949 0.991761 16.6511C0.847907 16.5072 0.76709 16.3121 0.76709 16.1087V3.83544C0.76709 3.63199 0.847907 3.43689 0.991761 3.29303C1.13562 3.14918 1.33072 3.06836 1.53417 3.06836H21.4782C21.6816 3.06836 21.8767 3.14918 22.0206 3.29303C22.1644 3.43689 22.2452 3.63199 22.2452 3.83544V16.1087C22.2452 16.3121 22.1644 16.5072 22.0206 16.6511C21.8767 16.7949 21.6816 16.8757 21.4782 16.8757ZM2.30124 15.3416H20.7111V4.60251H2.30124V15.3416Z" fill="#3F3D56"/>
<path d="M19.1769 23.0123C19.0039 23.0113 18.8363 22.9519 18.7013 22.8436L11.5062 17.0905L4.31098 22.8436C4.23374 22.9165 4.14219 22.9726 4.04215 23.0082C3.9421 23.0439 3.83573 23.0584 3.72978 23.0509C3.62383 23.0433 3.52061 23.0138 3.42665 22.9643C3.33269 22.9147 3.25005 22.8462 3.18396 22.7631C3.11786 22.6799 3.06976 22.5839 3.04269 22.4812C3.01562 22.3785 3.01018 22.2713 3.02671 22.1664C3.04324 22.0614 3.08139 21.9611 3.13872 21.8717C3.19606 21.7823 3.27135 21.7057 3.35981 21.6469L11.0306 15.5103C11.166 15.4033 11.3336 15.3451 11.5062 15.3451C11.6788 15.3451 11.8463 15.4033 11.9817 15.5103L19.6525 21.6469C19.7319 21.7097 19.798 21.7875 19.8472 21.8759C19.8964 21.9644 19.9276 22.0616 19.939 22.1622C19.9504 22.2627 19.9418 22.3645 19.9137 22.4617C19.8856 22.5589 19.8385 22.6496 19.7752 22.7285C19.703 22.8175 19.6118 22.8892 19.5083 22.9383C19.4047 22.9874 19.2915 23.0127 19.1769 23.0123Z" fill="#3F3D56"/>
</svg>
