<svg width="20" height="22" viewBox="0 0 20 22" fill="none" xmlns="http://www.w3.org/2000/svg">
<path d="M9.65957 22C7.08143 22 4.6584 20.856 2.83578 18.7778C-0.143548 15.3827 -0.851501 10.2339 1.07521 5.9675C1.24961 5.58171 1.66459 5.43007 2.00375 5.62807C2.34291 5.82607 2.47595 6.29986 2.30155 6.68643C0.649884 10.3431 1.2565 14.7557 3.81051 17.6668C5.37256 19.448 7.44954 20.4286 9.65957 20.4286C11.8689 20.4286 13.9466 19.448 15.5086 17.6668C17.0707 15.8856 17.9317 13.5182 17.9317 11C17.9317 8.481 17.0714 6.11364 15.5086 4.33321C13.9459 2.55279 11.8696 1.57143 9.65957 1.57143C7.44954 1.57143 5.37256 2.55279 3.81051 4.33321C3.54098 4.64043 3.10532 4.64043 2.83578 4.33321C2.56625 4.026 2.56625 3.52943 2.83578 3.22221C4.6584 1.14479 7.08143 0 9.65957 0C12.2377 0 14.6614 1.14479 16.4834 3.22221C18.3067 5.29964 19.3103 8.06143 19.3103 11C19.3103 13.9378 18.3067 16.7004 16.4834 18.7778C14.6614 20.856 12.2377 22 9.65957 22Z" fill="#177FB0"/>
<path d="M13.1056 14.9285C12.9546 14.9285 12.803 14.8727 12.6754 14.7564L9.22872 11.6135C9.06534 11.4643 8.97021 11.2388 8.97021 10.9999V4.71418C8.97021 4.28047 9.27904 3.92847 9.65956 3.92847C10.0401 3.92847 10.3489 4.28047 10.3489 4.71418V10.6228L13.5371 13.5291C13.8342 13.801 13.8825 14.2952 13.6446 14.6338C13.5081 14.8271 13.3082 14.9285 13.1056 14.9285Z" fill="#177FB0"/>
</svg>
