<svg width="20" height="21" viewBox="0 0 20 21" fill="none" xmlns="http://www.w3.org/2000/svg">
<mask id="path-1-inside-1_63_2389" fill="white">
<path d="M17.7011 19.0001H1.6092C0.721724 19.0001 0 18.0631 0 16.9116V2.08851C0 0.937004 0.721724 0 1.6092 0H17.7011C18.5886 0 19.3103 0.937004 19.3103 2.08851V16.9116C19.3103 18.0631 18.5886 19.0001 17.7011 19.0001ZM1.6092 1C1.16546 1 0.804598 1.48851 0.804598 2.08851V16.9116C0.804598 17.5116 1.16546 18.0001 1.6092 18.0001H17.7011C18.1449 18.0001 18.5057 17.5116 18.5057 16.9116V2.08851C18.5057 1.48851 18.1449 1 17.7011 1H1.6092Z"/>
</mask>
<path d="M17.7011 17.5001H1.6092V20.5001H17.7011V17.5001ZM1.6092 17.5001C1.72765 17.5001 1.73231 17.566 1.66005 17.4722C1.58691 17.3772 1.5 17.1835 1.5 16.9116H-1.5C-1.5 17.7911 -1.22604 18.6416 -0.716456 19.3031C-0.205986 19.9657 0.603268 20.5001 1.6092 20.5001V17.5001ZM1.5 16.9116V2.08851H-1.5V16.9116H1.5ZM1.5 2.08851C1.5 1.81659 1.58691 1.62283 1.66005 1.52789C1.73231 1.4341 1.72765 1.5 1.6092 1.5V-1.5C0.603267 -1.5 -0.205987 -0.965599 -0.716456 -0.303015C-1.22604 0.358426 -1.5 1.20892 -1.5 2.08851H1.5ZM1.6092 1.5H17.7011V-1.5H1.6092V1.5ZM17.7011 1.5C17.5827 1.5 17.578 1.4341 17.6503 1.52789C17.7234 1.62283 17.8103 1.81659 17.8103 2.08851H20.8103C20.8103 1.20892 20.5364 0.358426 20.0268 -0.303015C19.5163 -0.965599 18.7071 -1.5 17.7011 -1.5V1.5ZM17.8103 2.08851V16.9116H20.8103V2.08851H17.8103ZM17.8103 16.9116C17.8103 17.1835 17.7234 17.3772 17.6503 17.4722C17.578 17.566 17.5827 17.5001 17.7011 17.5001V20.5001C18.7071 20.5001 19.5163 19.9657 20.0268 19.3031C20.5364 18.6416 20.8103 17.7911 20.8103 16.9116H17.8103ZM1.6092 -0.499996C0.798231 -0.499996 0.187857 -0.050829 -0.165825 0.427744C-0.520287 0.907374 -0.695402 1.4993 -0.695402 2.08851H2.3046C2.3046 2.08861 2.3046 2.09054 2.30401 2.09438C2.30344 2.09816 2.30218 2.10458 2.29937 2.11357C2.2943 2.12975 2.28087 2.16468 2.24682 2.21077C2.1845 2.29509 1.97642 2.5 1.6092 2.5V-0.499996ZM-0.695402 2.08851V16.9116H2.3046V2.08851H-0.695402ZM-0.695402 16.9116C-0.695402 17.5008 -0.520287 18.0927 -0.165824 18.5723C0.187858 19.0509 0.798232 19.5001 1.6092 19.5001V16.5001C1.97642 16.5001 2.1845 16.705 2.24682 16.7893C2.28087 16.8354 2.2943 16.8703 2.29937 16.8865C2.30218 16.8955 2.30344 16.9019 2.30401 16.9057C2.3046 16.9095 2.3046 16.9115 2.3046 16.9116H-0.695402ZM1.6092 19.5001H17.7011V16.5001H1.6092V19.5001ZM17.7011 19.5001C18.5121 19.5001 19.1225 19.0509 19.4762 18.5723C19.8306 18.0927 20.0057 17.5008 20.0057 16.9116H17.0057C17.0057 16.9115 17.0057 16.9095 17.0063 16.9057C17.0069 16.9019 17.0082 16.8955 17.011 16.8865C17.016 16.8703 17.0295 16.8354 17.0635 16.7893C17.1258 16.705 17.3339 16.5001 17.7011 16.5001V19.5001ZM20.0057 16.9116V2.08851H17.0057V16.9116H20.0057ZM20.0057 2.08851C20.0057 1.4993 19.8306 0.907374 19.4762 0.427744C19.1225 -0.050829 18.5121 -0.499996 17.7011 -0.499996V2.5C17.3339 2.5 17.1258 2.29509 17.0635 2.21077C17.0295 2.16468 17.016 2.12975 17.011 2.11357C17.0082 2.10458 17.0069 2.09816 17.0063 2.09438C17.0057 2.09054 17.0057 2.08861 17.0057 2.08851H20.0057ZM17.7011 -0.499996H1.6092V2.5H17.7011V-0.499996Z" fill="#177FB0" mask="url(#path-1-inside-1_63_2389)"/>
<mask id="path-3-inside-2_63_2389" fill="white">
<path d="M15.2873 21.0007H4.0229C3.80084 21.0007 3.62061 20.7767 3.62061 20.5007C3.62061 20.2247 3.80084 20.0007 4.0229 20.0007H15.2873C15.5093 20.0007 15.6896 20.2247 15.6896 20.5007C15.6896 20.7767 15.5093 21.0007 15.2873 21.0007Z"/>
</mask>
<path d="M15.2873 19.5007H4.0229V22.5007H15.2873V19.5007ZM4.0229 19.5007C4.44612 19.5007 4.74952 19.718 4.90716 19.9139C5.06261 20.1071 5.12061 20.3195 5.12061 20.5007H2.12061C2.12061 21.2842 2.68436 22.5007 4.0229 22.5007V19.5007ZM5.12061 20.5007C5.12061 20.682 5.06261 20.8943 4.90716 21.0875C4.74952 21.2835 4.44612 21.5007 4.0229 21.5007V18.5007C2.68436 18.5007 2.12061 19.7172 2.12061 20.5007H5.12061ZM4.0229 21.5007H15.2873V18.5007H4.0229V21.5007ZM15.2873 21.5007C14.8641 21.5007 14.5607 21.2835 14.403 21.0875C14.2476 20.8943 14.1896 20.682 14.1896 20.5007H17.1896C17.1896 19.7172 16.6258 18.5007 15.2873 18.5007V21.5007ZM14.1896 20.5007C14.1896 20.3195 14.2476 20.1071 14.403 19.9139C14.5607 19.718 14.8641 19.5007 15.2873 19.5007V22.5007C16.6258 22.5007 17.1896 21.2842 17.1896 20.5007H14.1896Z" fill="#177FB0" mask="url(#path-3-inside-2_63_2389)"/>
<mask id="path-5-inside-3_63_2389" fill="white">
<path d="M9.65523 21C9.43316 21 9.25293 20.776 9.25293 20.5V18.5C9.25293 18.224 9.43316 18 9.65523 18C9.8773 18 10.0575 18.224 10.0575 18.5V20.5C10.0575 20.776 9.8773 21 9.65523 21Z"/>
</mask>
<path d="M9.65523 19.5C10.0784 19.5 10.3818 19.7173 10.5395 19.9132C10.6949 20.1064 10.7529 20.3187 10.7529 20.5H7.75293C7.75293 21.2835 8.31668 22.5 9.65523 22.5V19.5ZM10.7529 20.5V18.5H7.75293V20.5H10.7529ZM10.7529 18.5C10.7529 18.6813 10.6949 18.8936 10.5395 19.0868C10.3818 19.2827 10.0784 19.5 9.65523 19.5V16.5C8.31668 16.5 7.75293 17.7165 7.75293 18.5H10.7529ZM9.65523 19.5C9.23201 19.5 8.92861 19.2827 8.77097 19.0868C8.61552 18.8936 8.55753 18.6813 8.55753 18.5H11.5575C11.5575 17.7165 10.9938 16.5 9.65523 16.5V19.5ZM8.55753 18.5V20.5H11.5575V18.5H8.55753ZM8.55753 20.5C8.55753 20.3187 8.61552 20.1064 8.77097 19.9132C8.92861 19.7173 9.23201 19.5 9.65523 19.5V22.5C10.9938 22.5 11.5575 21.2835 11.5575 20.5H8.55753Z" fill="#177FB0" mask="url(#path-5-inside-3_63_2389)"/>
<path d="M9.65518 17.5005C10.0996 17.5005 10.4598 17.0528 10.4598 16.5005C10.4598 15.9482 10.0996 15.5005 9.65518 15.5005C9.21082 15.5005 8.85059 15.9482 8.85059 16.5005C8.85059 17.0528 9.21082 17.5005 9.65518 17.5005Z" stroke="#177FB0"/>
<mask id="path-8-inside-4_63_2389" fill="white">
<path d="M18.9081 14.0005H0.402344V15.0005H18.9081V14.0005Z"/>
</mask>
<path d="M0.402344 14.0005V12.5005H-1.09766V14.0005H0.402344ZM18.9081 14.0005H20.4081V12.5005H18.9081V14.0005ZM18.9081 15.0005V16.5005H20.4081V15.0005H18.9081ZM0.402344 15.0005H-1.09766V16.5005H0.402344V15.0005ZM0.402344 15.5005H18.9081V12.5005H0.402344V15.5005ZM17.4081 14.0005V15.0005H20.4081V14.0005H17.4081ZM18.9081 13.5005H0.402344V16.5005H18.9081V13.5005ZM1.90234 15.0005V14.0005H-1.09766V15.0005H1.90234Z" fill="#177FB0" mask="url(#path-8-inside-4_63_2389)"/>
</svg>
