<svg width="18" height="19" viewBox="0 0 18 19" fill="none" xmlns="http://www.w3.org/2000/svg">
<path d="M15.5833 1.80883H16.0331C15.9027 1.76226 15.7526 1.73486 15.5833 1.73486H5.39835V1.80883H15.5833ZM16.6558 2.55883C16.6558 2.36551 16.5458 2.13916 16.3333 1.97266V2.55883V12.8266H16.6558V2.55883ZM1.91462 17.4745H1.46483C1.59519 17.5211 1.74534 17.5485 1.91462 17.5485H11.9383C12.1076 17.5485 12.2577 17.5211 12.3881 17.4745H11.9383H1.91462ZM0.842129 16.7245C0.842129 16.9178 0.952076 17.1442 1.16462 17.3107V16.7245V5.70676V5.1206C0.952076 5.28709 0.842129 5.51345 0.842129 5.70676V16.7245ZM1.46483 4.95676H1.91462H11.9383H12.3881C12.2577 4.91019 12.1076 4.8828 11.9383 4.8828H1.91462C1.74534 4.8828 1.59519 4.91019 1.46483 4.95676ZM13.0108 5.70676C13.0108 5.51345 12.9008 5.28709 12.6883 5.1206V5.70676V16.7245V17.3107C12.9008 17.1442 13.0108 16.9178 13.0108 16.7245V5.70676Z" stroke="#3F3D56" stroke-width="1.5"/>
</svg>
