<svg width="22" height="19" viewBox="0 0 22 19" fill="none" xmlns="http://www.w3.org/2000/svg">
<path d="M19.4793 0.985107H1.80493C1.47011 0.985107 1.149 1.14606 0.912244 1.43255C0.675488 1.71905 0.54248 2.10762 0.54248 2.51278L0.54248 16.7711C0.54248 17.1762 0.675488 17.5648 0.912244 17.8513C1.149 18.1378 1.47011 18.2987 1.80493 18.2987H19.4793C19.8141 18.2987 20.1352 18.1378 20.372 17.8513C20.6087 17.5648 20.7417 17.1762 20.7417 16.7711V2.51278C20.7417 2.10762 20.6087 1.71905 20.372 1.43255C20.1352 1.14606 19.8141 0.985107 19.4793 0.985107ZM19.2099 2.00356L10.6421 10.0187L2.07426 2.00356H19.2099ZM1.38412 16.5623V2.64518L7.86891 8.71004L1.38412 16.5623ZM1.97747 17.2803L8.53801 9.34148L10.3812 11.0678C10.4548 11.1363 10.545 11.1735 10.6379 11.1735C10.7308 11.1735 10.821 11.1363 10.8946 11.0678L12.7462 9.34148L19.3067 17.2803H1.97747ZM19.9001 16.5623L13.4153 8.71004L19.9001 2.64518V16.5623Z" fill="#3F3D56" stroke="#3F3D56" stroke-width="0.7"/>
</svg>
