<svg width="18" height="19" viewBox="0 0 18 19" fill="none" xmlns="http://www.w3.org/2000/svg">
<path d="M9.13631 0.984863C6.78707 0.984863 6.49165 0.995684 5.56862 1.0368C4.64559 1.08009 4.01688 1.22509 3.46609 1.43935C2.88835 1.65665 2.36505 1.99752 1.93276 2.43813C1.49242 2.87064 1.15159 3.39388 0.933975 3.97146C0.719719 4.52117 0.573635 5.15096 0.531433 6.07074C0.490313 6.99594 0.479492 7.29027 0.479492 9.64276C0.479492 11.9931 0.490313 12.2874 0.531433 13.2105C0.574717 14.1324 0.719719 14.7611 0.933975 15.3119C1.15581 15.8811 1.45122 16.3637 1.93276 16.8452C2.41321 17.3268 2.89583 17.6233 3.46501 17.844C4.01688 18.0583 4.6445 18.2044 5.56645 18.2466C6.49057 18.2877 6.7849 18.2985 9.13631 18.2985C11.4877 18.2985 11.781 18.2877 12.7051 18.2466C13.626 18.2033 14.2568 18.0583 14.8076 17.844C15.385 17.6266 15.9079 17.2857 16.3399 16.8452C16.8214 16.3637 17.1168 15.8811 17.3386 15.3119C17.5518 14.7611 17.6979 14.1324 17.7412 13.2105C17.7823 12.2874 17.7931 11.9931 17.7931 9.64168C17.7931 7.29027 17.7823 6.99594 17.7412 6.07183C17.6979 5.15096 17.5518 4.52117 17.3386 3.97146C17.1211 3.39387 16.7802 2.87062 16.3399 2.43813C15.9077 1.99736 15.3844 1.65646 14.8065 1.43935C14.2547 1.22509 13.6249 1.07901 12.704 1.0368C11.7799 0.995684 11.4866 0.984863 9.13414 0.984863H9.13739H9.13631ZM8.36044 2.54525H9.13739C11.4488 2.54525 11.7225 2.55283 12.6347 2.59503C13.4788 2.6329 13.9376 2.77466 14.2427 2.89261C14.6464 3.04951 14.9353 3.2378 15.2383 3.54079C15.5413 3.84378 15.7285 4.13162 15.8854 4.53632C16.0044 4.84039 16.1451 5.2992 16.183 6.14324C16.2252 7.05546 16.2338 7.32923 16.2338 9.63952C16.2338 11.9498 16.2252 12.2247 16.183 13.1369C16.1451 13.9809 16.0033 14.4386 15.8854 14.7438C15.7466 15.1197 15.5251 15.4595 15.2372 15.7382C14.9342 16.0412 14.6464 16.2284 14.2417 16.3853C13.9387 16.5044 13.4799 16.645 12.6347 16.684C11.7225 16.7251 11.4488 16.7349 9.13739 16.7349C6.82602 16.7349 6.55117 16.7251 5.63896 16.684C4.79492 16.645 4.33719 16.5044 4.03203 16.3853C3.656 16.2467 3.31582 16.0256 3.0365 15.7382C2.74839 15.4591 2.52653 15.1189 2.38724 14.7427C2.26929 14.4386 2.12753 13.9798 2.08966 13.1358C2.04854 12.2236 2.03988 11.9498 2.03988 9.63735C2.03988 7.32598 2.04854 7.05329 2.08966 6.14108C2.12862 5.29704 2.26929 4.83823 2.38832 4.53308C2.54523 4.12945 2.73351 3.84053 3.0365 3.53754C3.33949 3.23455 3.62733 3.04735 4.03203 2.89044C4.33719 2.77141 4.79492 2.63074 5.63896 2.59178C6.43755 2.55499 6.74703 2.54417 8.36044 2.54309V2.54525ZM13.758 3.98229C13.6215 3.98229 13.4865 4.00916 13.3604 4.06136C13.2344 4.11357 13.1199 4.19009 13.0234 4.28655C12.9269 4.38301 12.8504 4.49753 12.7982 4.62357C12.746 4.7496 12.7191 4.88468 12.7191 5.0211C12.7191 5.15752 12.746 5.29261 12.7982 5.41864C12.8504 5.54468 12.9269 5.6592 13.0234 5.75566C13.1199 5.85212 13.2344 5.92864 13.3604 5.98085C13.4865 6.03305 13.6215 6.05992 13.758 6.05992C14.0335 6.05992 14.2977 5.95048 14.4925 5.75566C14.6873 5.56084 14.7968 5.29662 14.7968 5.0211C14.7968 4.74559 14.6873 4.48136 14.4925 4.28655C14.2977 4.09173 14.0335 3.98229 13.758 3.98229ZM9.13739 5.1964C8.54772 5.1872 7.96211 5.2954 7.41466 5.5147C6.86721 5.73399 6.36885 6.06 5.9486 6.47374C5.52835 6.88749 5.1946 7.3807 4.9668 7.92466C4.73899 8.46863 4.62167 9.05248 4.62167 9.64222C4.62167 10.232 4.73899 10.8158 4.9668 11.3598C5.1946 11.9037 5.52835 12.397 5.9486 12.8107C6.36885 13.2244 6.86721 13.5505 7.41466 13.7697C7.96211 13.989 8.54772 14.0972 9.13739 14.088C10.3045 14.0698 11.4176 13.5934 12.2365 12.7617C13.0554 11.9299 13.5144 10.8095 13.5144 9.64222C13.5144 8.47499 13.0554 7.35456 12.2365 6.52279C11.4176 5.69102 10.3045 5.21461 9.13739 5.1964ZM9.13739 6.75571C9.9028 6.75571 10.6369 7.05977 11.1781 7.60099C11.7193 8.14222 12.0234 8.87627 12.0234 9.64168C12.0234 10.4071 11.7193 11.1411 11.1781 11.6824C10.6369 12.2236 9.9028 12.5276 9.13739 12.5276C8.37199 12.5276 7.63793 12.2236 7.0967 11.6824C6.55548 11.1411 6.25142 10.4071 6.25142 9.64168C6.25142 8.87627 6.55548 8.14222 7.0967 7.60099C7.63793 7.05977 8.37199 6.75571 9.13739 6.75571Z" fill="#3F3D56"/>
</svg>
