<svg width="21" height="22" viewBox="0 0 21 22" fill="none" xmlns="http://www.w3.org/2000/svg">
<path fill-rule="evenodd" clip-rule="evenodd" d="M4.1512 5.4111C3.92476 5.60317 3.70798 5.80489 3.50158 6.01593C3.38799 6.13248 3.27737 6.25179 3.17046 6.37351C1.81406 7.91764 1 9.88901 1 12.0356C1 12.918 1.13772 13.7707 1.39385 14.5766C1.45176 14.759 1.65853 14.8635 1.8549 14.8093C2.05164 14.7555 2.16374 14.5635 2.10583 14.3811C1.92506 13.8128 1.8085 13.219 1.76321 12.6073H5.6598C5.70769 13.6583 5.91779 14.6707 6.2671 15.6238C5.2975 15.9907 4.39286 16.4762 3.57434 17.0604C3.21946 16.63 2.90913 16.1666 2.64966 15.6755C2.55908 15.5049 2.33673 15.4342 2.15261 15.518C1.96886 15.6021 1.89276 15.8086 1.98334 15.9797C3.55504 18.9521 6.8473 21 10.6503 21H10.6626C15.8651 20.9938 20.1084 17.1559 20.2944 12.3631C20.3048 12.3314 20.3103 12.2976 20.3103 12.2625C20.3103 12.2335 20.3066 12.2056 20.2992 12.179C20.3003 12.1314 20.3007 12.0835 20.3007 12.0356C20.3007 10.5014 19.8846 9.05695 19.1522 7.79385C19.0553 7.62626 18.83 7.56351 18.6496 7.65351C18.4691 7.74385 18.4016 7.95316 18.4988 8.12075C19.1559 9.25419 19.5367 10.5459 19.5572 11.9176H15.6684C15.6535 11.2542 15.5744 10.6052 15.436 9.97625C15.4679 9.8797 15.4846 9.77832 15.4846 9.67384V6.27972C15.4846 6.27179 15.4842 6.26386 15.4839 6.25593L16.4572 5.76282C16.8551 6.0811 17.2226 6.43144 17.5549 6.80972C17.6844 6.9573 17.9186 6.97903 18.0771 6.85868C18.236 6.73868 18.2598 6.5211 18.1302 6.37351C17.8292 6.0311 17.5014 5.70938 17.1502 5.41179L17.7041 5.1311C17.8232 5.07041 17.8975 4.95455 17.8975 4.82835C17.8975 4.70214 17.8232 4.58593 17.7041 4.52559L10.8293 1.04215C10.7183 0.985948 10.5846 0.985948 10.4737 1.04215L3.59884 4.52559C3.47968 4.58593 3.40544 4.70214 3.40544 4.82835C3.40544 4.95455 3.47968 5.07041 3.59884 5.1311L4.1512 5.4111ZM6.52917 16.2693C5.63753 16.6086 4.8049 17.0545 4.05023 17.5904C5.45935 19.0341 7.40931 20.0141 9.60168 20.2535C8.27497 19.1693 7.21591 17.809 6.52917 16.2693ZM14.7871 16.278C14.1007 17.8128 13.0443 19.1693 11.7213 20.251C13.9029 20.0079 15.8436 19.0307 17.2475 17.5935C16.498 17.0607 15.6717 16.6169 14.7871 16.278ZM11.0312 15.5255V19.8924C12.3564 18.8604 13.4136 17.5407 14.0907 16.0369C13.1241 15.7373 12.0973 15.56 11.0312 15.5255ZM10.2888 15.5249C9.2223 15.5569 8.19442 15.7317 7.22631 16.0297C7.90302 17.5362 8.96134 18.8586 10.2888 19.8924V15.5249ZM19.5371 12.6073H15.6602C15.6123 13.6618 15.4011 14.6773 15.0496 15.6324C16.0121 15.9993 16.9104 16.4824 17.7238 17.0635C18.7572 15.8114 19.4142 14.2769 19.5371 12.6073ZM14.917 12.6073H11.0312V14.8355C12.1894 14.8707 13.3049 15.0635 14.3535 15.3914C14.6754 14.5114 14.8699 13.5773 14.917 12.6073ZM10.2888 14.8349V12.6073H6.40296C6.45011 13.5742 6.64351 14.5059 6.96386 15.3838C8.01364 15.058 9.13024 14.8676 10.2888 14.8349ZM14.8064 10.6263C14.8027 10.6276 11.4303 11.9176 11.4303 11.9176H14.9256C14.9152 11.4797 14.8751 11.0487 14.8064 10.6263ZM5.09073 5.88696V9.62074C5.09073 9.81108 4.92443 9.96556 4.71952 9.96556C4.51462 9.96556 4.34831 9.81108 4.34831 9.62074V6.18972C4.24697 6.2842 4.14786 6.38075 4.05172 6.47937C3.94667 6.58696 3.84458 6.69696 3.74547 6.80972C2.51862 8.20661 1.77249 9.98212 1.74316 11.9176H5.65163C5.66648 11.2556 5.74555 10.608 5.88327 9.98005C5.8506 9.88246 5.83315 9.77936 5.83315 9.6735V6.27972C5.83315 6.2742 5.83315 6.26868 5.83353 6.26317L5.09073 5.88696ZM6.51358 10.6266C6.44528 11.049 6.40482 11.4797 6.39442 11.9176H9.89828C9.89828 11.9176 6.51692 10.628 6.51358 10.6266ZM14.7422 6.63179L13.6208 7.20006C13.4407 7.29109 13.215 7.22937 13.117 7.06247C13.019 6.89523 13.0855 6.68558 13.2652 6.59455L16.7512 4.82835L10.6515 1.73767L4.55174 4.82835L10.6515 7.91902L11.9733 7.24902C12.1534 7.15799 12.3791 7.21971 12.4771 7.38661C12.5751 7.55385 12.5086 7.76351 12.329 7.85454L10.8293 8.61454C10.7183 8.6704 10.5846 8.6704 10.4737 8.61454L6.57557 6.63937V9.6735C6.57557 9.8135 6.66652 9.93936 6.80573 9.99246L10.6648 11.4645L14.5124 9.99281C14.6512 9.9397 14.7422 9.81384 14.7422 9.67384V6.63179Z" fill="#177FB0" stroke="#177FB0" stroke-width="0.5"/>
</svg>
