<svg width="20" height="24" viewBox="0 0 20 24" fill="none" xmlns="http://www.w3.org/2000/svg">
<path fill-rule="evenodd" clip-rule="evenodd" d="M12.3793 16.4C12.57 16.4 12.7241 16.5643 12.7241 16.7667C12.7241 16.9691 12.57 17.1333 12.3793 17.1333H7.55172C7.36138 17.1333 7.2069 16.9691 7.2069 16.7667C7.2069 16.5643 7.36138 16.4 7.55172 16.4H12.3793ZM14.4483 14.9333H7.55172C7.36138 14.9333 7.2069 14.7691 7.2069 14.5667C7.2069 14.3643 7.36138 14.2 7.55172 14.2H14.4483C14.639 14.2 14.7931 14.3643 14.7931 14.5667C14.7931 14.7691 14.639 14.9333 14.4483 14.9333ZM15.1379 12.7333H7.55172C7.36138 12.7333 7.2069 12.5691 7.2069 12.3667C7.2069 12.1643 7.36138 12 7.55172 12H15.1379C15.3286 12 15.4828 12.1643 15.4828 12.3667C15.4828 12.5691 15.3286 12.7333 15.1379 12.7333ZM7.2069 10.1667C7.2069 9.96427 7.36138 9.8 7.55172 9.8H13.7586C13.9493 9.8 14.1034 9.96427 14.1034 10.1667C14.1034 10.3691 13.9493 10.5333 13.7586 10.5333H7.55172C7.36138 10.5333 7.2069 10.3691 7.2069 10.1667ZM7.2069 7.96667C7.2069 7.76427 7.36138 7.6 7.55172 7.6H14.4483C14.639 7.6 14.7931 7.76427 14.7931 7.96667C14.7931 8.16907 14.639 8.33333 14.4483 8.33333H7.55172C7.36138 8.33333 7.2069 8.16907 7.2069 7.96667ZM5.82759 16.7667C5.82759 16.9691 5.6731 17.1333 5.48276 17.1333H4.7931C4.60276 17.1333 4.44828 16.9691 4.44828 16.7667C4.44828 16.5643 4.60276 16.4 4.7931 16.4H5.48276C5.6731 16.4 5.82759 16.5643 5.82759 16.7667ZM5.82759 14.5667C5.82759 14.7691 5.6731 14.9333 5.48276 14.9333H4.7931C4.60276 14.9333 4.44828 14.7691 4.44828 14.5667C4.44828 14.3643 4.60276 14.2 4.7931 14.2H5.48276C5.6731 14.2 5.82759 14.3643 5.82759 14.5667ZM5.82759 12.3667C5.82759 12.5691 5.6731 12.7333 5.48276 12.7333H4.7931C4.60276 12.7333 4.44828 12.5691 4.44828 12.3667C4.44828 12.1643 4.60276 12 4.7931 12H5.48276C5.6731 12 5.82759 12.1643 5.82759 12.3667ZM5.82759 10.1667C5.82759 10.3691 5.6731 10.5333 5.48276 10.5333H4.7931C4.60276 10.5333 4.44828 10.3691 4.44828 10.1667C4.44828 9.96427 4.60276 9.8 4.7931 9.8H5.48276C5.6731 9.8 5.82759 9.96427 5.82759 10.1667ZM5.82759 7.96667C5.82759 8.16907 5.6731 8.33333 5.48276 8.33333H4.7931C4.60276 8.33333 4.44828 8.16907 4.44828 7.96667C4.44828 7.76427 4.60276 7.6 4.7931 7.6H5.48276C5.6731 7.6 5.82759 7.76427 5.82759 7.96667ZM5.82759 2.83333C5.82759 2.63093 5.98207 2.46667 6.17241 2.46667H6.86207C7.05241 2.46667 7.2069 2.63093 7.2069 2.83333C7.2069 3.03573 7.05241 3.2 6.86207 3.2H6.17241C5.98207 3.2 5.82759 3.03573 5.82759 2.83333ZM9.27586 2.83333C9.27586 2.63093 9.43035 2.46667 9.62069 2.46667H10.3103C10.501 2.46667 10.6552 2.63093 10.6552 2.83333C10.6552 3.03573 10.501 3.2 10.3103 3.2H9.62069C9.43035 3.2 9.27586 3.03573 9.27586 2.83333ZM12.7241 2.83333C12.7241 2.63093 12.8783 2.46667 13.069 2.46667H13.7586C13.9493 2.46667 14.1034 2.63093 14.1034 2.83333C14.1034 3.03573 13.9493 3.2 13.7586 3.2H13.069C12.8783 3.2 12.7241 3.03573 12.7241 2.83333ZM4.7931 3.93333C4.9831 3.93333 5.13793 4.09797 5.13793 4.3C5.13793 4.50203 4.9831 4.66667 4.7931 4.66667C4.6031 4.66667 4.44828 4.50203 4.44828 4.3C4.44828 4.09797 4.6031 3.93333 4.7931 3.93333ZM3.75862 4.3C3.75862 4.90647 4.22276 5.4 4.7931 5.4C5.36345 5.4 5.82759 4.90647 5.82759 4.3C5.82759 3.8226 5.53862 3.41963 5.13793 3.26747V1.36667C5.13793 1.16427 4.98345 1 4.7931 1C4.60276 1 4.44828 1.16427 4.44828 1.36667V3.26747C4.04759 3.41963 3.75862 3.8226 3.75862 4.3ZM15.1379 3.93333C15.3283 3.93333 15.4828 4.09797 15.4828 4.3C15.4828 4.50203 15.3283 4.66667 15.1379 4.66667C14.9476 4.66667 14.7931 4.50203 14.7931 4.3C14.7931 4.09797 14.9476 3.93333 15.1379 3.93333ZM14.1034 4.3C14.1034 4.90647 14.5676 5.4 15.1379 5.4C15.7083 5.4 16.1724 4.90647 16.1724 4.3C16.1724 3.8226 15.8831 3.41963 15.4828 3.26747V1.36667C15.4828 1.16427 15.3286 1 15.1379 1C14.9472 1 14.7931 1.16427 14.7931 1.36667V3.26747C14.3928 3.41963 14.1034 3.8226 14.1034 4.3ZM11.6897 3.93333C11.88 3.93333 12.0345 4.09797 12.0345 4.3C12.0345 4.50203 11.88 4.66667 11.6897 4.66667C11.4993 4.66667 11.3448 4.50203 11.3448 4.3C11.3448 4.09797 11.4993 3.93333 11.6897 3.93333ZM10.6552 4.3C10.6552 4.90647 11.1193 5.4 11.6897 5.4C12.26 5.4 12.7241 4.90647 12.7241 4.3C12.7241 3.8226 12.4348 3.41963 12.0345 3.26747V1.36667C12.0345 1.16427 11.8803 1 11.6897 1C11.499 1 11.3448 1.16427 11.3448 1.36667V3.26747C10.9445 3.41963 10.6552 3.8226 10.6552 4.3ZM8.24138 3.93333C8.43138 3.93333 8.58621 4.09797 8.58621 4.3C8.58621 4.50203 8.43138 4.66667 8.24138 4.66667C8.05138 4.66667 7.89655 4.50203 7.89655 4.3C7.89655 4.09797 8.05138 3.93333 8.24138 3.93333ZM7.2069 4.3C7.2069 4.90647 7.67103 5.4 8.24138 5.4C8.81172 5.4 9.27586 4.90647 9.27586 4.3C9.27586 3.8226 8.9869 3.41963 8.58621 3.26747V1.36667C8.58621 1.16427 8.43172 1 8.24138 1C8.05103 1 7.89655 1.16427 7.89655 1.36667V3.26747C7.49586 3.41963 7.2069 3.8226 7.2069 4.3ZM17.2069 22.2667H2.72414C2.33724 22.2667 2.55042 22.6645 2.38455 22.2667L9.93724 22.691L17.844 22.2667C17.6781 22.6645 17.5938 22.2667 17.2069 22.2667ZM2.02722 22.691L9.98821 22.7027L18.206 22.4054V20.9189H1.77042L2.02722 22.691ZM17.2069 2.46667H16.5172C16.3266 2.46667 16.1724 2.63093 16.1724 2.83333C16.1724 3.03573 16.3266 3.2 16.5172 3.2H17.2069C17.7097 3.2 18.2414 3.7654 18.2414 4.3V20.5172H1.77042L1.68966 4.3C1.68966 3.7654 2.22138 3.2 2.72414 3.2H3.41379C3.60414 3.2 3.75862 3.03573 3.75862 2.83333C3.75862 2.63093 3.60414 2.46667 3.41379 2.46667H2.72414C1.83793 2.46667 1 3.35767 1 4.3V21.1667C1 22.109 1.83793 23 2.72414 23H17.2069C18.0931 23 18.931 22.109 18.931 21.1667V4.3C18.931 3.35767 18.0931 2.46667 17.2069 2.46667Z" fill="#177FB0" stroke="#177FB0" stroke-width="0.5"/>
</svg>
