<svg width="30" height="30" viewBox="0 0 30 30" fill="none" xmlns="http://www.w3.org/2000/svg">
<ellipse cx="14.5588" cy="15" rx="14.5588" ry="15" fill="#5DBF23"/>
<path d="M10.8796 21.4894C11.0728 21.218 11.179 21.0807 11.2762 20.9306C14.3915 16.1208 17.8034 11.7906 21.2354 7.49317C21.3651 7.33086 21.498 7.12382 21.6514 7.0658C21.8365 6.99577 22.1384 6.94975 22.2211 7.09828C22.3323 7.29825 22.352 7.73295 22.2842 7.99575C22.2035 8.30835 22.0071 8.57607 21.8288 8.81017C20.7651 10.207 19.6715 11.5557 18.6264 12.9815C16.4419 15.9629 14.2713 18.9665 12.1146 21.9922C11.1696 23.3153 10.8059 23.3689 9.9363 21.9552C9.36388 21.0242 7.63635 17.8866 7.1073 16.8981C7.03259 16.7444 6.96604 16.5824 6.90825 16.4136C6.7885 16.1007 6.71091 15.7563 6.94803 15.5137C7.21225 15.2437 7.39984 15.5255 7.55638 15.8188C7.71488 16.1159 7.85003 16.4423 8.01974 16.7238C8.54656 17.5977 10.3106 20.568 10.8796 21.4894Z" fill="white"/>
</svg>
