<svg width="19" height="19" viewBox="0 0 19 19" fill="none" xmlns="http://www.w3.org/2000/svg">
<path d="M17.7168 1.393C17.4928 1.18891 17.2223 1.05515 16.9343 1.00596C16.6463 0.956767 16.3516 0.993985 16.0813 1.11365L1.97752 7.34793C1.67591 7.48379 1.41916 7.71688 1.24136 8.01623C1.06356 8.31559 0.973125 8.66707 0.982047 9.02402C0.99097 9.38097 1.09883 9.7265 1.29132 10.0148C1.4838 10.303 1.75181 10.5204 2.05977 10.638L4.91265 11.7243L6.5028 17.4815C6.52441 17.5584 6.55577 17.6316 6.59596 17.6989C6.60206 17.7093 6.61066 17.717 6.61715 17.727C6.66359 17.798 6.71971 17.8607 6.78354 17.9129C6.8017 17.9281 6.81908 17.9423 6.83849 17.9557C6.91321 18.01 6.99595 18.0497 7.08304 18.073L7.09236 18.0739L7.09764 18.0763C7.15 18.088 7.20329 18.0939 7.25673 18.094C7.26187 18.094 7.26643 18.0913 7.27153 18.0912C7.35216 18.0897 7.4321 18.0745 7.50848 18.0462C7.52626 18.0395 7.54148 18.0284 7.55873 18.0204C7.61569 17.9946 7.66966 17.9615 7.7195 17.9217C7.75942 17.8849 7.79936 17.8481 7.8393 17.8113L9.96591 15.2407L13.1377 17.9308C13.417 18.1688 13.7607 18.2982 14.1146 18.2985C14.4854 18.298 14.8448 18.1579 15.1325 17.9017C15.4202 17.6456 15.6187 17.2889 15.6948 16.8916L18.2625 3.09105C18.3207 2.78044 18.3007 2.45836 18.2045 2.15926C18.1084 1.86016 17.9398 1.5953 17.7168 1.393ZM7.56879 11.9986C7.45967 12.1176 7.38507 12.2692 7.35437 12.4345L7.11078 13.7304L6.49372 11.4961L9.69309 9.67203L7.56879 11.9986ZM14.1023 16.5685L10.354 13.3895C10.1972 13.2568 10.0005 13.1937 9.8031 13.2127C9.60568 13.2318 9.42206 13.3315 9.28882 13.4921L8.60774 14.3152L8.84844 13.0344L14.4228 6.93139C14.5558 6.78591 14.6369 6.59307 14.6513 6.3878C14.6657 6.18252 14.6125 5.9784 14.5013 5.81239C14.39 5.64638 14.2282 5.52946 14.045 5.48282C13.8619 5.43619 13.6695 5.46291 13.5028 5.55814L5.50271 10.1185L2.57163 8.94415L16.7208 2.74688L14.1023 16.5685Z" fill="#3F3D56"/>
</svg>
