<svg width="18" height="19" viewBox="0 0 18 19" fill="none" xmlns="http://www.w3.org/2000/svg">
<path fill-rule="evenodd" clip-rule="evenodd" d="M9.12152 0.985596C4.35372 0.985596 0.483398 4.85592 0.483398 9.62372C0.483398 11.3065 0.950829 12.9144 1.86699 14.3167L0.558188 17.2148C0.446004 17.4765 0.483398 17.7944 0.670371 18.0188C0.819948 18.187 1.02562 18.2805 1.24998 18.2805C1.32477 18.2805 1.38087 18.2805 1.45565 18.2618L5.08292 17.2709C6.33563 17.944 7.73792 18.2992 9.15891 18.2992C13.9267 18.2992 17.797 14.4289 17.797 9.66111C17.7596 4.85592 13.8893 0.985596 9.12152 0.985596ZM9.12152 16.7661C7.85011 16.7661 6.61609 16.4295 5.53165 15.7938C5.41947 15.719 5.28859 15.6816 5.1577 15.6816C5.08292 15.6816 5.02682 15.6816 4.95204 15.7003L2.57749 16.3547L3.40017 14.5411C3.51235 14.298 3.47495 13.9989 3.32538 13.7932C2.44661 12.5779 1.97918 11.1382 1.97918 9.62372C1.97918 5.6973 5.1951 2.48137 9.12152 2.48137C13.0479 2.48137 16.2639 5.6786 16.2639 9.62372C16.2639 13.5501 13.0666 16.7661 9.12152 16.7661Z" fill="#3F3D56"/>
<path fill-rule="evenodd" clip-rule="evenodd" d="M12.4497 10.9128C12.0944 10.6884 11.6083 10.4454 11.197 10.6324C10.8791 10.7632 10.6548 11.2868 10.4491 11.5485C10.3369 11.6794 10.206 11.6981 10.0378 11.642C8.80374 11.1559 7.86887 10.3332 7.19577 9.21136C7.08359 9.04309 7.10229 8.89351 7.23317 8.72524C7.43884 8.48217 7.7006 8.20172 7.75669 7.88386C7.81278 7.56601 7.66321 7.17337 7.53232 6.89291C7.36405 6.51896 7.17708 5.99544 6.80313 5.78977C6.46658 5.6028 6.01785 5.69629 5.71869 5.95805C5.19517 6.38808 4.93341 7.06118 4.95211 7.71559C4.95211 7.90256 4.9708 8.08953 5.0269 8.2765C5.13908 8.70654 5.32605 9.11788 5.56912 9.51052C5.73739 9.80968 5.92436 10.0901 6.13003 10.3519C6.78444 11.2494 7.60711 12.0159 8.54197 12.5956C9.00941 12.876 9.53293 13.1378 10.0564 13.3061C10.6548 13.493 11.1783 13.6987 11.814 13.5865C12.4871 13.4556 13.1415 13.0443 13.4033 12.4086C13.478 12.2216 13.5154 11.9973 13.478 11.8103C13.3472 11.3615 12.7862 11.1185 12.4497 10.9128Z" fill="#3F3D56"/>
</svg>
