<svg width="17" height="18" viewBox="0 0 17 18" fill="none" xmlns="http://www.w3.org/2000/svg">
<path d="M3.47006 2.66909H3.47013L3.46999 2.66079C3.46067 2.09986 3.67457 1.55764 4.06564 1.15263C4.45555 0.748818 4.99004 0.514114 5.55318 0.5H14.1328C14.6974 0.512118 15.234 0.746065 15.6256 1.15026C16.0181 1.55547 16.233 2.09872 16.2237 2.66082L16.2236 2.66082V2.66909V13.6021V13.6136L16.2241 13.6251C16.2364 13.8917 16.1597 14.155 16.0058 14.374C15.8518 14.593 15.6291 14.7556 15.372 14.8358L15.372 14.8356L15.3598 14.8397C15.2437 14.8793 15.1218 14.8992 14.9991 14.8986L14.9991 14.8984L14.9855 14.8987C14.812 14.9027 14.6399 14.8681 14.4816 14.7976C14.3234 14.7271 14.1831 14.6225 14.0708 14.4915L14.0487 14.4658L14.0234 14.4432L10.1748 11.0213L9.84254 10.7259L9.51031 11.0213L5.66172 14.4432L5.63084 14.4707L5.60488 14.5028C5.45662 14.6865 5.25508 14.8208 5.02727 14.8871C4.79943 14.9535 4.5566 14.9486 4.33166 14.8732L4.3317 14.8731L4.32165 14.87C4.06462 14.7898 3.84187 14.6273 3.6879 14.4082L3.27884 14.6957L3.6879 14.4082C3.53394 14.1892 3.45728 13.9259 3.46953 13.6593L3.47006 13.6478V13.6363V2.66909Z" fill="white" stroke="#7E7979"/>
<path d="M0.892912 5.2355H0.892981L0.892843 5.22719C0.883523 4.66626 1.09743 4.12405 1.48849 3.71903C1.8784 3.31522 2.41289 3.08052 2.97603 3.06641H11.5556C12.1203 3.07852 12.6568 3.31247 13.0484 3.71666C13.441 4.12188 13.6558 4.66513 13.6465 5.22723L13.6465 5.22723V5.2355V16.1685V16.18L13.647 16.1915C13.6592 16.4581 13.5826 16.7214 13.4286 16.9404C13.2746 17.1594 13.0519 17.322 12.7949 17.4022L12.7948 17.402L12.7826 17.4062C12.6666 17.4457 12.5447 17.4656 12.422 17.465L12.422 17.4648L12.4083 17.4652C12.2349 17.4691 12.0627 17.4345 11.9045 17.364C11.7462 17.2935 11.6059 17.1889 11.4936 17.0579L11.4715 17.0322L11.4462 17.0096L7.59763 13.5877L7.26539 13.2923L6.93316 13.5877L3.08457 17.0096L3.05369 17.0371L3.02773 17.0693C2.87947 17.2529 2.67793 17.3872 2.45012 17.4535C2.22228 17.5199 1.97945 17.515 1.75451 17.4396L1.75455 17.4395L1.7445 17.4364C1.48747 17.3562 1.26473 17.1937 1.11075 16.9746L0.701695 17.2622L1.11075 16.9746C0.956796 16.7556 0.880129 16.4923 0.892384 16.2257L0.892912 16.2142V16.2027V5.2355Z" fill="white" stroke="#7E7979"/>
<path d="M7.26367 5.98828V11.1212" stroke="#7E7979" stroke-linecap="round" stroke-linejoin="round"/>
<path d="M4.68652 8.55469H9.84088" stroke="#7E7979" stroke-linecap="round" stroke-linejoin="round"/>
</svg>
